<svg xmlns="http://www.w3.org/2000/svg" viewBox="0 0 171.27 185.16"><defs><style>.cls-1{fill:lime;}.cls-2{fill:tomato;}</style></defs><title>iconeAtivo 1</title><g id="Camada_2" data-name="Camada 2"><g id="Camada_1-2" data-name="Camada 1"><path class="cls-1" d="M74.85,185.16,11,148.89l63.05-111,15.37,8.73L33.7,144.71l48.48,27.55Z"/><path class="cls-1" d="M27.11,44.47,90.85,8l63.39,110.78-15.34,8.78-56-97.9L34.49,57.36Z"/><path class="cls-1" d="M171.19,74.6l.08,73.44-127.64.13,0-17.67,112.8-.12-.06-55.76Z"/><path class="cls-2" d="M63.85,177.16,0,140.89l63.05-111,15.37,8.73L22.7,136.71l48.48,27.55Z"/><path class="cls-2" d="M16.11,36.47,79.85,0l63.39,110.78-15.34,8.78-56-97.9L23.49,49.36Z"/><path class="cls-2" d="M160.19,66.6l.08,73.44-127.64.13,0-17.67,112.8-.12-.06-55.76Z"/></g></g></svg>