<?xml version="1.0" encoding="utf-8"?>
<!-- Generator: Adobe Illustrator 23.0.1, SVG Export Plug-In . SVG Version: 6.00 Build 0)  -->
<svg version="1.1" id="Camada_1" xmlns="http://www.w3.org/2000/svg" xmlns:xlink="http://www.w3.org/1999/xlink" x="0px" y="0px"
	 viewBox="0 0 171.3 185.2" style="enable-background:new 0 0 171.3 185.2;" xml:space="preserve">
<style type="text/css">
	.st0{fill:#00FF00;}
	.st1{fill:#FF6347;}
</style>
<title>iconeAtivo 1</title>
<g>
	<g id="Camada_1-2">
		<path class="st0" d="M76.7,168.9L24.1,139l52-91.5l12.7,7.2l-45.9,80.9l40,22.7L76.7,168.9z"/>
		<path class="st0" d="M37.4,52.9l52.5-30.1l52.3,91.3l-12.6,7.2L83.4,40.7L43.5,63.5L37.4,52.9z"/>
		<path class="st0" d="M156.2,77.8l0.1,60.5L51,138.4v-14.6l93-0.1l0-46L156.2,77.8z"/>
		<path class="st1" d="M67.7,162.3L15,132.4l52-91.5l12.7,7.2L33.8,129l40,22.7L67.7,162.3z"/>
		<path class="st1" d="M28.3,46.3l52.5-30.1l52.3,91.3l-12.6,7.2L74.3,34.1L34.4,56.9L28.3,46.3z"/>
		<path class="st1" d="M147.1,71.2l0.1,60.5l-105.2,0.1v-14.6l93-0.1l0-46L147.1,71.2z"/>
	</g>
</g>
</svg>
